<svg xmlns="http://www.w3.org/2000/svg" xmlns:xlink="http://www.w3.org/1999/xlink" version="1.1" width="750pt" height="750pt" viewBox="0 0 750 750">
  <g enable-background="new">
    <g id="Layer-1" data-name="Layer">
      <clipPath id="cp0">
        <path transform="matrix(1,0,0,-1,0,750)" d="M 0 750 L 750 750 L 750 0 L 0 0 Z " />
      </clipPath>
      <g clip-path="url(#cp0)">
        <path transform="matrix(1,0,0,-1,369.9253,13.06842)" d="M 0 0 C -149.466 -.039 -270.623 -121.196 -270.663 -270.663 C -270.645 -287.76 -269.042 -304.82 -265.874 -321.622 L -230.853 -297.679 C -169.387 -255.511 -69.685 -255.511 -8.219 -297.679 L 28.446 -322.837 L 48.386 -336.488 C 103.777 -374.439 193.545 -374.439 248.864 -336.488 L 265.16 -325.338 C 295.199 -178.824 200.776 -35.7 54.262 -5.661 C 36.454 -2.01 18.323 -.161 .143 -.143 Z " fill="#f2b705" />
        <path transform="matrix(1,0,0,-1,522.0889,446.3291)" d="M 0 0 C -38.654 -.738 -76.65 10.062 -109.138 31.019 L -165.672 69.757 C -228.419 108.262 -307.476 108.262 -370.223 69.757 L -406.745 44.741 C -413.988 39.788 -423.876 41.644 -428.83 48.887 C -433.784 56.13 -431.928 66.018 -424.685 70.972 L -388.163 95.987 C -314.546 141.729 -221.349 141.729 -147.732 95.987 L -91.198 57.249 C -35.263 22.949 35.19 22.949 91.126 57.249 L 112.567 71.901 C 119.811 76.854 129.698 74.999 134.652 67.755 C 139.606 60.512 137.75 50.624 130.507 45.671 L 109.065 31.019 C 76.58 10.115 38.623 -.681 0 0 " fill="#53cbc8" />
        <path transform="matrix(1,0,0,-1,252.998,560.04)" d="M 0 0 L 0 152.949 C -.131 156.17 -.011 159.396 .357 162.598 C 1.372 171.307 8.743 177.879 17.51 177.893 C 25.997 177.634 32.941 171.057 33.663 162.598 C 34.314 157.288 34.505 151.932 34.235 146.588 L 34.235 -158.381 C 34.592 -168.242 26.887 -176.526 17.025 -176.884 C 16.925 -176.887 16.825 -176.89 16.724 -176.892 C 7.029 -176.352 -.393 -168.054 .148 -158.358 C .163 -158.08 .186 -157.801 .214 -157.523 L .214 -55.819 Z " fill="#53cbc8" />
        <path transform="matrix(1,0,0,-1,220.8359,483.0654)" d="M 0 0 L 0 -75.974 C 0 -88.981 -7.147 -97.415 -16.796 -97.415 C -26.445 -97.415 -34.092 -88.339 -34.164 -75.974 L -34.164 76.117 C -34.164 89.411 -26.373 98.417 -16.295 97.56 C -6.218 96.701 -.214 89.054 -.143 75.688 C 0 50.674 0 25.373 0 0 " fill="#53cbc8" />
        <path transform="matrix(1,0,0,-1,319.5381,482.9219)" d="M 0 0 L 0 53.317 C 0 65.683 6.576 73.687 16.367 73.687 C 26.5 73.212 34.33 64.612 33.855 54.479 C 33.844 54.234 33.827 53.99 33.806 53.746 C 34.14 17.438 34.14 -18.893 33.806 -55.248 C 33.806 -67.612 26.659 -75.117 16.438 -74.974 C 6.218 -74.831 0 -67.255 -.071 -54.604 L -.071 -.071 Z " fill="#53cbc8" />
        <path transform="matrix(1,0,0,-1,120.4185,493.9287)" d="M 0 0 L 0 53.39 C 0 65.825 6.575 73.83 16.367 73.83 C 26.5 73.355 34.33 64.755 33.855 54.622 C 33.843 54.378 33.827 54.133 33.806 53.89 C 34.139 17.534 34.139 -18.821 33.806 -55.177 C 33.806 -67.541 26.659 -74.974 16.51 -74.902 C 6.361 -74.831 0 -67.184 -.072 -54.462 L -.072 0 Z " fill="#53cbc8" />
        <path transform="matrix(1,0,0,-1,402.5166,448.6162)" d="M 0 0 L 0 0 C 9.276 0 16.796 -7.52 16.796 -16.796 L 16.796 -45.813 C 16.796 -55.089 9.276 -62.608 0 -62.608 C -9.276 -62.608 -16.796 -55.089 -16.796 -45.813 L -16.796 -16.796 C -16.796 -7.52 -9.276 0 0 0 " fill="#53cbc8" />
        <path transform="matrix(1,0,0,-1,468.9854,474.0596)" d="M 0 0 L 0 0 C 9.276 0 16.796 -7.52 16.796 -16.796 L 16.796 -179.68 C 16.796 -188.956 9.276 -196.476 0 -196.476 C -9.276 -196.476 -16.796 -188.956 -16.796 -179.68 L -16.796 -16.796 C -16.796 -7.52 -9.276 0 0 0 " fill="#53cbc8" />
        <path transform="matrix(1,0,0,-1,535.0244,480.3496)" d="M 0 0 L 0 0 C 9.276 0 16.796 -7.52 16.796 -16.796 L 16.796 -155.235 C 16.796 -164.512 9.276 -172.031 0 -172.031 C -9.275 -172.031 -16.796 -164.512 -16.796 -155.235 L -16.796 -16.796 C -16.796 -7.52 -9.275 0 0 0 " fill="#53cbc8" />
        <path transform="matrix(1,0,0,-1,601.9932,464.5537)" d="M 0 0 L 0 0 C 9.276 0 16.796 -7.521 16.796 -16.796 L 16.796 -76.475 C 16.796 -85.751 9.276 -93.271 0 -93.271 C -9.275 -93.271 -16.796 -85.751 -16.796 -76.475 L -16.796 -16.796 C -16.796 -7.521 -9.275 0 0 0 " fill="#53cbc8" />
      </g>
    </g>
  </g>
</svg>
