<svg id="switch-vertical" data-name="switch-vertical" xmlns="http://www.w3.org/2000/svg" width="24" height="24" viewBox="0 0 24 24">
  <rect id="Boundary" width="24" height="24" fill="none"/>
  <g id="Shape" transform="translate(-243.097 374.986) rotate(-90)">
    <path id="Path_37" data-name="Path 37" d="M-1594.349,261.312a1,1,0,0,1-.707-.293,1,1,0,0,1,0-1.414l5.526-5.526-4.474.006h0a1,1,0,0,1-1-1,1,1,0,0,1,1-1l9.313-.013-8.947,8.948A1,1,0,0,1-1594.349,261.312Z" transform="translate(1668.189 1194.52) rotate(45)" fill="#ebecff"/>
    <path id="Path_39" data-name="Path 39" d="M2.828,8.237A1,1,0,0,1,2.121,6.53L7.648,1,3.174,1.01a1,1,0,0,1-1-1,1,1,0,0,1,1-1L12.483-1,3.536,7.944A1,1,0,0,1,2.828,8.237Z" transform="translate(365.868 266.331) rotate(-135)" fill="#ebecff"/>
    <path id="Path_1590" data-name="Path 1590" d="M15761.226,20079.6h-2v-1.889a3.008,3.008,0,0,1,3.009-3h1.144v2h-1.144a1,1,0,0,0-1.008,1v1.889Z" transform="translate(-15405.893 -19824.502)" fill="#ebecff"/>
    <path id="Path_1591" data-name="Path 1591" d="M15761.226,20079.6h-2v-1.889a3.008,3.008,0,0,1,3.009-3h1.144v2h-1.144a1,1,0,0,0-1.008,1v1.889Z" transform="translate(16131.709 20334.93) rotate(180)" fill="#ebecff"/>
    <path id="Path_1591-2" data-name="Path 1591" d="M1,1V1H1M1,0A1,1,0,0,1,2,1V2A1,1,0,0,1,0,2V1A1,1,0,0,1,1,0Z" transform="translate(353.332 253.097)" fill="#ebecff"/>
    <path id="Path_1591-3" data-name="Path 1591" d="M1,1V1H1M1,0A1,1,0,0,1,2,1V2A1,1,0,0,1,0,2V1A1,1,0,0,1,1,0Z" transform="translate(372.484 257.336) rotate(180)" fill="#ebecff"/>
  </g>
</svg>
